<svg xmlns="http://www.w3.org/2000/svg" width="568" height="582" viewBox="0 0 568 582" version="1.1">
	<path d="M 77.007 9.593 C 72.464 11.563, 69.261 14.612, 66.903 19.210 C 65.073 22.778, 65 26.455, 65 114.871 L 65 206.821 60.975 213.923 C 34.215 261.148, 30.707 329.377, 52.087 386.827 C 78.775 458.543, 137.908 508.117, 216.500 524.664 C 235.254 528.613, 276.621 528.918, 284.243 525.164 C 291.146 521.765, 293.408 518.050, 293.845 509.398 L 294.204 502.287 304.352 501.635 C 321.931 500.504, 342.808 496.347, 360.138 490.526 L 367.776 487.961 382.638 496.870 C 390.812 501.770, 411.900 514.360, 429.500 524.847 C 447.100 535.334, 462.850 544.831, 464.500 545.951 C 469.855 549.585, 477.404 548.831, 482.035 544.201 C 488.131 538.104, 488.079 536.395, 481.033 511.355 C 473.933 486.127, 466.081 457.978, 462.983 446.641 L 460.834 438.782 470.738 428.641 C 508.062 390.422, 524.299 349.542, 522.759 297.665 C 520.899 235.046, 485.132 176.344, 426.135 139.085 C 364.551 100.193, 281.580 88.415, 211.253 108.582 L 202.007 111.234 186.253 96.415 C 177.589 88.265, 162.175 73.674, 152 63.991 C 100.965 15.423, 98.105 12.855, 91.920 10.049 C 86.671 7.668, 81.791 7.519, 77.007 9.593 M 93 128.303 L 93 209 109.352 209 C 124.705 209, 125.910 209.139, 129.078 211.274 C 137.975 217.269, 139.610 226.278, 133.074 233.289 L 129.148 237.500 105.358 238 L 81.568 238.500 77.310 249 C 73.171 259.205, 70.259 270.155, 67.868 284.500 C 66.353 293.592, 66.582 326.503, 68.223 335.500 L 69.500 342.500 116.195 343 L 162.891 343.500 166.427 346.928 C 172.466 352.783, 173.423 359.788, 169.028 365.961 C 164.724 372.005, 164.080 372.083, 119.086 372.023 C 93.309 371.988, 77.913 372.331, 77.531 372.949 C 76.858 374.039, 82.206 387.487, 87.473 397.946 C 96.874 416.614, 116.573 440.424, 135.276 455.725 L 142.281 461.456 165.893 437.298 C 178.879 424.010, 190.770 412.658, 192.317 412.069 C 202.562 408.174, 212.987 415.211, 212.996 426.027 C 213.001 432.125, 212.702 432.504, 189.160 456.213 C 177.848 467.605, 168.796 477.115, 169.046 477.346 C 170.009 478.236, 184.280 485.140, 189.026 487.010 C 206.272 493.808, 233.125 499.470, 253.750 500.657 L 265 501.305 265 449.336 L 265 397.368 259.250 395.050 C 250.962 391.708, 244.930 387.678, 239.303 381.722 C 232.095 374.092, 229.692 369.254, 224.540 352 C 216.468 324.962, 214.768 322.674, 201.111 320.465 C 170.545 315.521, 149.416 293.414, 147.295 264.155 C 146.566 254.105, 146.644 254.024, 157 254.049 C 185.396 254.119, 202.772 259.800, 218.470 274.147 C 231.611 286.157, 237.625 298.109, 249.092 335 C 253.622 349.575, 257.424 361.632, 257.540 361.793 C 257.657 361.954, 259.383 362.350, 261.376 362.674 L 265 363.262 265 246.131 L 265 129 260.036 129 L 255.073 129 254.786 177.250 C 254.512 223.426, 254.414 225.646, 252.500 228.887 C 248.473 235.707, 239.263 237.982, 232.898 233.730 C 225.945 229.085, 226.005 229.550, 225.986 180.500 C 225.977 156.300, 225.614 135.941, 225.180 135.257 C 224.552 134.268, 223.481 134.277, 219.945 135.300 L 215.500 136.586 215 162.590 C 214.561 185.440, 214.281 188.928, 212.696 191.345 C 206.472 200.832, 192.592 199.925, 187.964 189.729 C 186.236 185.924, 186.042 182.988, 186.022 160.439 L 186 135.378 170.750 121.461 C 162.362 113.806, 150.550 102.791, 144.500 96.982 C 138.450 91.173, 129.680 82.839, 125.010 78.460 C 120.341 74.082, 111.229 65.349, 104.760 59.053 L 93 47.606 93 128.303 M 294 300.500 L 294 473 301.750 472.994 C 317.277 472.982, 343.114 467.443, 362.381 459.995 C 367.014 458.204, 371.077 457.207, 372.241 457.577 C 373.330 457.922, 387.333 465.883, 403.360 475.268 C 444.027 499.081, 447.345 500.989, 447.618 500.715 C 447.751 500.582, 446.361 495.305, 444.529 488.987 C 439.302 470.963, 431.924 445.209, 429.682 437.167 C 427.164 428.133, 427.347 427.749, 438.500 418.744 C 466.670 395.998, 482.725 370.570, 491.691 334.500 C 495.432 319.451, 495.663 291.426, 492.179 275.281 C 478.895 213.706, 429.839 162.394, 363.500 140.683 C 341.773 133.573, 313.833 128.016, 299.750 128.005 L 294 128 294 300.500 M 328 286.939 C 307.473 291.065, 303.349 319.828, 321.934 329.250 C 344.576 340.728, 366.183 312.402, 348.699 294.162 C 342.981 288.197, 335.219 285.488, 328 286.939 M 397.500 286.935 C 386.654 289.576, 379.841 298.091, 379.814 309.043 C 379.743 337.578, 420.073 340.411, 424.586 312.188 C 426.148 302.417, 418.150 290.607, 407.911 287.566 C 402.191 285.868, 401.946 285.853, 397.500 286.935" stroke="none" fill="black" fill-rule="evenodd"/>
</svg>