<svg xmlns="http://www.w3.org/2000/svg" width="716" height="820" viewBox="0 0 716 820" version="1.1">
	<path d="M 336.217 40.561 C 328.886 45.695, 328.181 62.335, 335.004 69.158 C 337.362 71.516, 338.690 72, 342.801 72 C 348.471 72, 350.304 70.514, 349.822 66.310 C 349.525 63.716, 349.131 63.476, 344.704 63.193 C 338.800 62.816, 337.451 60.412, 338.736 52.563 L 339.565 47.500 343.998 47.711 C 348.501 47.925, 349.956 46.980, 349.985 43.821 C 350.026 39.321, 341.028 37.191, 336.217 40.561 M 359 98 C 356.592 100.408, 356.553 100.917, 358.557 103.777 C 359.870 105.653, 361.048 106, 366.089 106 C 379.277 106, 385.282 114.210, 380.486 125.687 C 377.635 132.512, 384.671 137.483, 388.631 131.440 C 390.839 128.070, 391.661 115.532, 390.002 110.506 C 388.441 105.777, 382.510 99.117, 378.282 97.347 C 373.093 95.175, 361.431 95.569, 359 98 M 298.500 98.906 C 287.684 102.874, 274.096 111.687, 260.440 123.589 L 253.380 129.742 245.940 127.843 C 234.329 124.880, 220.451 123.763, 210.542 124.995 C 203.185 125.909, 183.978 130.278, 182.034 131.479 C 181.674 131.701, 177.222 128.564, 172.140 124.506 C 162.051 116.451, 151.062 109.146, 139.767 102.990 C 130.877 98.143, 126.134 97.743, 123.113 101.583 C 115.830 110.843, 110.285 142.706, 111.216 169.954 L 111.679 183.500 108.423 189.500 C 104.515 196.703, 99.438 210.898, 98.476 217.312 C 97.817 221.708, 97.590 221.980, 94.140 222.517 C 92.138 222.829, 89.180 223.295, 87.566 223.554 C 83.565 224.195, 81 226.751, 81 230.098 C 81 233.985, 84.282 236, 90.616 236 L 95.788 236 96.505 245.250 C 97.286 255.313, 100.699 270.271, 103.830 277.348 L 105.804 281.810 99.652 286.824 C 93.569 291.782, 76.981 308.226, 71.230 315 C 51.967 337.688, 50.174 361.905, 66.644 376.957 C 69.856 379.893, 73.938 382.483, 76.908 383.469 L 81.839 385.107 77.149 391.304 C 65.346 406.901, 65.038 409.152, 65.017 480.145 C 64.998 546.424, 64.885 545.323, 72.963 557.822 L 76.956 564 66.228 564.004 C 41.952 564.013, 30.175 565.108, 27.478 567.608 C 24.202 570.644, 24.244 574.948, 27.589 578.923 L 30.178 582 287.589 582 C 429.165 582, 545 582.379, 545 582.843 C 545 584.992, 534.508 598.274, 528.351 603.919 C 508.504 622.115, 494.082 627.997, 450.881 635.515 C 383.022 647.324, 364.152 655.232, 337.662 682.958 C 320.623 700.793, 312.656 717.123, 309.956 739.750 C 304.192 788.052, 342.356 827.779, 384.234 817.068 C 406.292 811.426, 420.287 797.259, 427.973 772.786 C 433.807 754.213, 441.163 749.368, 473 743.131 C 530.152 731.935, 570.900 711.252, 603.509 676.886 C 638.071 640.462, 654.523 600.964, 654.484 554.500 C 654.454 517.387, 644.238 486.750, 622.139 457.500 C 616.092 449.497, 603.498 436.481, 598.352 432.917 C 596.071 431.338, 591.571 427.447, 588.352 424.272 C 579.248 415.292, 566.274 409.976, 548.947 408.125 C 542.393 407.424, 541.837 407.151, 536.296 401.909 C 507.268 374.448, 461.255 354.060, 416.771 348.947 C 409.537 348.116, 396.942 347.878, 378.110 348.217 L 350.178 348.720 348.358 344.685 C 345.846 339.115, 332.470 318.954, 325.741 310.596 L 320.183 303.693 325.232 297.625 C 330.814 290.918, 338.712 275.655, 339.656 269.750 C 340.440 264.846, 340.840 264.671, 348.012 266.082 C 355.327 267.521, 358.315 265.833, 357.799 260.551 C 357.538 257.889, 356.672 257.093, 351 254.303 C 347.425 252.544, 344.545 250.632, 344.600 250.053 C 344.655 249.474, 344.767 244.050, 344.850 238 L 345 227 348.435 227 C 357.882 227, 361.851 221.760, 356.476 216.385 C 354.256 214.165, 353.217 213.890, 347.871 214.109 L 341.791 214.357 339.499 207.928 C 335.696 197.267, 332.528 190.970, 325.950 181 L 319.682 171.500 319.534 150 C 319.396 130.079, 319.185 127.729, 316.654 118 C 313.315 105.165, 310.762 99.668, 307.438 98.154 C 304.286 96.717, 304.521 96.698, 298.500 98.906 M 295.500 119.447 C 290.281 121.714, 270 137.621, 270 139.447 C 270 139.671, 272.461 140.980, 275.468 142.357 C 282.775 145.702, 288.789 149.935, 296.556 157.201 L 303 163.229 303.002 150.365 C 303.004 138.641, 300.791 120.593, 299.134 118.822 C 298.785 118.449, 297.150 118.731, 295.500 119.447 M 135 121.070 C 135 125.285, 140.056 139.941, 147.118 156.200 L 150.028 162.900 142.922 170.200 C 131.037 182.409, 121.185 199.026, 117.148 213.669 C 114.840 222.045, 114.812 221.991, 121.417 222.031 C 132.798 222.102, 160.182 228.215, 167.498 232.319 C 172.514 235.132, 174.156 239.065, 171.527 241.970 C 169.351 244.375, 166.484 244.495, 157.307 242.565 C 153.554 241.775, 143.512 240.194, 134.991 239.052 C 126.471 237.910, 118.203 236.755, 116.619 236.486 L 113.738 235.998 114.256 246.249 C 114.752 256.054, 118.174 270.569, 119.810 269.804 C 120.189 269.626, 125.675 266.923, 132 263.796 C 143.425 258.147, 160.957 252.378, 169.853 251.338 C 173.638 250.896, 175.010 251.199, 177.250 252.970 C 183.255 257.719, 179.820 261.251, 164 266.592 C 152.329 270.532, 126.883 282.642, 126.297 284.535 C 125.780 286.206, 135.047 297.041, 141.524 302.339 C 152.500 311.317, 165.373 315.913, 179.727 315.980 C 186.400 316.011, 189.439 322.711, 183.658 324.646 C 182.471 325.043, 172.328 325.286, 161.119 325.186 C 140.395 325.001, 131.635 325.797, 122.273 328.719 C 117.320 330.265, 116.939 330.255, 115.023 328.520 C 110.092 324.058, 113.891 320.149, 126.797 316.403 C 127.830 316.103, 121.952 307.906, 114.410 299.129 C 113.502 298.072, 104.512 304.838, 97.065 312.182 C 76.166 332.791, 68.601 350.436, 76 361.315 C 81.393 369.245, 93.426 371.099, 109.138 366.419 C 133.891 359.047, 161.792 363.720, 180.925 378.442 C 194.155 388.623, 201.909 398.483, 214 420.500 C 224.110 438.911, 226.496 442.402, 235.417 451.837 C 272.336 490.883, 345.182 505.819, 443.500 494.499 C 455.289 493.142, 493.183 488.998, 511.988 487.011 C 519.571 486.209, 524.190 486.635, 538.338 489.444 C 547.639 491.291, 553.031 491.397, 560.201 489.876 C 594.055 482.693, 595.319 439.787, 562 428.817 C 556.486 427.002, 552.466 426.611, 535.500 426.241 C 514.213 425.777, 500.478 426.841, 449.391 432.912 C 422.641 436.090, 421.049 436.035, 417.489 431.805 C 413.215 426.725, 415.020 420.819, 421.225 419.581 C 436.699 416.496, 488.406 409.831, 508.418 408.343 L 517.335 407.679 514.418 405.295 C 508.818 400.718, 493.417 391.609, 482.500 386.417 C 445.287 368.718, 407.808 362.759, 353.402 365.891 C 330.348 367.218, 326.876 366.687, 323.773 361.359 C 321.213 356.965, 322.894 353.375, 328.176 351.953 C 331.743 350.992, 331.940 350.754, 330.856 348.708 C 327.270 341.936, 310.107 318.293, 303.888 311.560 C 303.353 310.981, 301.660 311.269, 299.476 312.310 C 289.472 317.080, 285.276 311.251, 293.951 304.635 C 300.966 299.286, 310.524 288.799, 315.756 280.710 C 320.660 273.129, 325.441 261.998, 324.253 260.928 C 323.291 260.062, 306.789 258, 300.817 258 C 292.215 258, 287.442 250.377, 293.541 246.381 C 296.072 244.723, 313.978 244.864, 325.250 246.631 L 329 247.219 328.926 243.359 C 328.885 241.237, 328.548 237.619, 328.176 235.320 L 327.500 231.140 314.134 234.570 C 295.717 239.296, 291 238.891, 291 232.584 C 291 228.203, 295.652 225.710, 313.500 220.522 C 326.681 216.691, 326.446 217.570, 318.574 201.500 C 302.287 168.252, 275.802 149, 238.872 143.564 C 218.926 140.629, 207.579 141.663, 188.636 148.146 L 176.772 152.206 171.636 147.247 C 158.689 134.746, 135 117.821, 135 121.070 M 396.814 130.510 C 395.849 132.627, 395.990 133.371, 397.710 135.260 C 403.017 141.088, 404.237 151.466, 400.250 156.870 C 397.522 160.567, 397.431 162.175, 399.829 164.345 C 407.897 171.647, 416.239 148.646, 409.933 136.485 C 405.722 128.365, 399.154 125.373, 396.814 130.510 M 415.788 164.150 C 407.576 167.153, 405.294 184.709, 412.107 192.469 C 417.448 198.552, 428 198.350, 428 192.165 C 428 188.459, 426.313 186.987, 422.857 187.679 C 418.443 188.561, 417 186.645, 417 179.901 C 417 172.935, 419.580 170.130, 424.327 171.934 C 426.762 172.860, 426.965 172.705, 427.575 169.450 C 428.691 163.506, 423.693 161.259, 415.788 164.150 M 594 172 C 591.499 174.501, 591.372 180.036, 593.750 182.847 C 598.305 188.229, 607 185.084, 607 178.054 C 607 170.914, 598.871 167.129, 594 172 M 177.128 197.272 C 174.482 199.918, 176.668 204, 180.731 204 C 183.228 204, 183.506 204.464, 184.468 210.254 C 186.314 221.357, 199 219.866, 199 208.545 C 199 204.186, 199.120 204, 201.929 204 C 207.684 204, 210.035 198.322, 204.853 196.936 C 200.413 195.749, 178.385 196.015, 177.128 197.272 M 257.750 197.080 C 254.073 199.222, 256.365 204, 261.070 204 C 263.498 204, 263.786 204.413, 264.254 208.562 C 265.194 216.902, 272.039 220.780, 276.826 215.686 C 278.094 214.336, 279 212.078, 279 210.267 C 279 205.488, 279.938 204, 282.952 204 C 288.196 204, 290.847 198.653, 286.435 196.975 C 283.053 195.689, 259.993 195.774, 257.750 197.080 M 229.028 220.053 C 223.859 222.242, 223.704 225.904, 228.575 230.775 C 231.892 234.092, 232.055 234.531, 230.825 236.855 C 226.370 245.277, 218.269 248.730, 214.240 243.925 C 208.425 236.990, 201.645 242.950, 206.653 250.593 C 212.279 259.179, 225.969 259.073, 235.060 250.373 L 238.619 246.966 241.060 249.580 C 249.297 258.405, 264.284 257.764, 268.752 248.395 C 271.998 241.587, 264.966 235.298, 261.532 241.938 C 258.517 247.768, 249.231 244.801, 245.989 236.972 C 244.819 234.149, 244.929 233.684, 247.359 231.147 C 250.365 228.010, 250.899 222.991, 248.444 220.954 C 246.468 219.313, 232.324 218.657, 229.028 220.053 M 434.823 219.656 C 431.443 220.240, 429.754 222.243, 430.173 225.170 C 430.615 228.250, 434.411 229.967, 440.816 229.985 C 443.739 229.993, 447.040 230.486, 448.150 231.080 C 452.886 233.615, 454.447 244.308, 451.015 250.710 C 446.864 258.456, 455.363 262.197, 459.669 254.519 C 465.943 243.335, 462.110 227.009, 452 221.855 C 448.357 219.998, 439.448 218.857, 434.823 219.656 M 469.009 256.855 C 458.669 262.401, 458.341 284.320, 468.534 288.579 C 476.007 291.701, 481.453 289.809, 480.822 284.310 C 480.525 281.717, 480.169 281.500, 476.215 281.500 C 470.876 281.500, 470.035 280.272, 470.015 272.450 C 469.997 265.412, 471.013 264, 476.093 264 C 478.538 264, 479.991 263.465, 480.393 262.418 C 482.836 256.053, 476.384 252.900, 469.009 256.855 M 485.580 313.911 C 483.711 315.977, 484.510 320.937, 486.729 321.034 C 494.133 321.357, 499.208 322.041, 500.892 322.942 C 505.901 325.623, 507.301 334.753, 503.930 342.752 C 502.665 345.755, 502.731 346.175, 504.794 348.238 C 511.677 355.122, 518.476 334.645, 513.238 322.805 C 509.962 315.399, 505.265 312.568, 495.568 312.157 C 488.377 311.852, 487.267 312.047, 485.580 313.911 M 621.503 327.997 C 615.445 334.691, 624.892 343.957, 631.949 338.242 C 637.022 334.135, 633.733 326, 627 326 C 624.582 326, 622.687 326.688, 621.503 327.997 M 647.455 328.455 C 644.456 331.453, 644.351 333.905, 647.073 337.365 C 651.237 342.660, 659 339.530, 659 332.557 C 659 326.316, 652.059 323.850, 647.455 328.455 M 117.888 383.361 C 108.712 386.077, 101.933 390.263, 95.229 397.352 C 85.297 407.853, 83.036 415.869, 83.015 440.656 L 83 457.812 97.250 458.181 C 110.318 458.519, 111.918 458.768, 116.540 461.185 C 122.250 464.171, 130.450 472.463, 129.389 474.179 C 128.990 474.825, 129.136 475.034, 129.729 474.667 C 130.827 473.989, 132.216 476.900, 133.942 483.500 C 134.530 485.748, 134.991 498.054, 134.994 511.593 C 135 537.818, 135.731 542.295, 141.351 550.566 C 142.723 552.585, 143.625 554.814, 143.355 555.518 C 143.085 556.222, 143.339 557.092, 143.920 557.451 C 144.589 557.864, 144.731 557.462, 144.308 556.359 C 143.869 555.216, 145.078 555.772, 147.819 557.975 C 150.119 559.823, 152 561.540, 152 561.790 C 152 562.040, 151.325 561.685, 150.500 561 C 149.280 559.987, 149 560.036, 149 561.261 C 149 562.101, 150.216 563.015, 151.750 563.328 C 153.262 563.636, 234.909 563.919, 333.187 563.955 L 511.874 564.021 512.538 559.595 C 514.793 544.557, 502.306 527.278, 484 520.108 C 473.552 516.016, 461.325 515.060, 428 515.730 C 349.252 517.314, 328.014 515.637, 291.271 504.933 L 280.863 501.901 256.550 502.201 L 232.238 502.500 226.796 506.250 C 220.431 510.636, 216.889 510.980, 213.455 507.545 C 210.459 504.550, 210.352 501.784, 213.063 497.397 C 214.981 494.295, 215.105 492.802, 214.813 476.279 L 214.500 458.500 203.062 438 C 188.785 412.412, 185.284 407.150, 177.068 398.922 C 161.401 383.232, 138.586 377.233, 117.888 383.361 M 602.289 469.525 C 599.345 486.707, 586.694 500.937, 568.887 507.095 C 562.028 509.467, 544.651 510.329, 536.500 508.701 L 532.500 507.903 535.500 509.792 C 541.220 513.394, 551.573 524.530, 554.752 530.500 L 557.947 536.500 557.973 531.941 C 558.007 526.126, 559.700 523.723, 563.450 524.164 C 572.923 525.280, 574.670 551.361, 566.900 575.679 C 561.624 592.190, 555.808 601.936, 544.280 613.579 C 522.488 635.587, 496.767 647.011, 454.500 653.454 C 400.620 661.666, 379.565 669.262, 358.356 688.141 C 340.542 703.998, 330.225 722.995, 331.280 738 C 332.777 759.310, 346.920 773.269, 367.012 773.268 C 381.915 773.266, 389.564 766.643, 394.460 749.500 C 400.218 729.337, 417.107 716.213, 442.090 712.487 L 446.065 711.894 449.619 719.697 C 451.574 723.989, 453.339 727.667, 453.542 727.872 C 454.071 728.406, 480.789 723.254, 492.078 720.440 C 555.736 704.572, 608.770 659.688, 628.476 605 C 639.478 574.469, 639.844 536.241, 629.401 508.274 C 623.563 492.638, 613.887 474.805, 606.803 466.627 L 603.448 462.754 602.289 469.525" stroke="none" fill="black" fill-rule="evenodd"/>
</svg>